<svg id="Camada_1" data-name="Camada 1" xmlns="http://www.w3.org/2000/svg" viewBox="0 0 336.05 304.2"><defs><style>.cls-1,.cls-9{fill:none;}.cls-2{fill:#22d3fd;}.cls-3{fill:#d2a2f8;}.cls-4{fill:#7c21ea;}.cls-5{fill:#fff;}.cls-6,.cls-7,.cls-8{fill:#9b9797;isolation:isolate;}.cls-6{opacity:0.18;}.cls-7{opacity:0.25;}.cls-8{opacity:0.24;}.cls-9{stroke:#000;stroke-miterlimit:10;stroke-width:3px;}</style></defs><rect class="cls-1" width="336" height="304"/><path class="cls-2" d="M-478.92,249.66c2.93-1.43,4.17-5.24,7.36-6.24s6.89,1,9.87-1.21c1.31-1,2.27-2.57,3.85-3.15,1.38-.5,2.82,0,4.15.47l3.41,1c4.56,1.41,9.1,2.79,13.66,4.19,5.18,1.58,10.33,3.18,15.5,4.75.5.17.72-.63.22-.8L-449.26,240a45.36,45.36,0,0,0-6.81-2,4.87,4.87,0,0,0-4,1.5c-1.58,1.46-2.77,2.81-5.06,2.92-1.91.11-3.8-.38-5.7-.08-3.93.61-5.15,4.89-8.47,6.52a.44.44,0,0,0-.22.6A.45.45,0,0,0-478.92,249.66Z" transform="translate(479.6 0.17)"/><path class="cls-2" d="M-429.2,246.18c2,.5,3.52-1.46,5.29-2a8.59,8.59,0,0,1,7.08.77.41.41,0,0,0,.56-.16.41.41,0,0,0-.15-.56,9.41,9.41,0,0,0-6-1.24,9,9,0,0,0-2.6.72c-1.19.52-2.57,2-4,1.71a.43.43,0,0,0-.36.48A.43.43,0,0,0-429.2,246.18Z" transform="translate(479.6 0.17)"/><path class="cls-2" d="M-407.86,244.11a56.94,56.94,0,0,1-5.29-4.89c-.77-.8-1.52-1.65-2.24-2.51-.42-.5-.83-1-1.22-1.49s-.55-.72-.8-1.08a1.1,1.1,0,0,1,0-1.57l0,0c.33.14.85-.19.58-.58a23.34,23.34,0,0,1-3.71-7.43l-.5.49a3.39,3.39,0,0,1,2.08,1.51c.28.45,1,.06.72-.41a117.37,117.37,0,0,1-10.05-22.49l-.69.41c11.6,11.38,16.85,27.2,26.62,39.93.33.42,1.05,0,.72-.41-9.79-12.79-15.11-28.66-26.76-40.1a.43.43,0,0,0-.6,0,.42.42,0,0,0-.09.4A116.09,116.09,0,0,0-419,226.53l.72-.41a4.23,4.23,0,0,0-2.57-1.88.39.39,0,0,0-.5.26.33.33,0,0,0,0,.24,24.73,24.73,0,0,0,3.82,7.65l.58-.58a1.27,1.27,0,0,0-1.71.53,1.29,1.29,0,0,0-.12.38c-.25,1.3,1.33,2.73,2.05,3.64a55.46,55.46,0,0,0,8.3,8.34C-408,245-407.45,244.44-407.86,244.11Z" transform="translate(479.6 0.17)"/><path class="cls-2" d="M-410.77,226.85A108.62,108.62,0,0,1-423,202.53c-.08.16-.19.33-.28.49a2,2,0,0,1,2.27,1,.4.4,0,0,0,.56.15.41.41,0,0,0,.16-.56c-4.29-9.25-8.66-18.89-8.35-29.3l-.78.22q11.08,22.72,21.06,46c.19.44.91.11.75-.33-1.11-3.32-2.19-6.66-3.3-10-.52-1.63-1.08-3.23-1.6-4.86-.36-1.08-1.14-3.43.41-4-.16,0-.3-.14-.47-.19,2,3.89,4,7.79,6,11.68a.41.41,0,0,0,.72-.41,27.42,27.42,0,0,1-3-13.65c-.28,0-.55.09-.8.11a366.39,366.39,0,0,0,19.92,41.65c.25.47,1,0,.72-.42a363.79,363.79,0,0,1-19.84-41.45.41.41,0,0,0-.52-.26.4.4,0,0,0-.28.37,28.57,28.57,0,0,0,3.13,14.11c.25-.14.47-.28.72-.41-2-3.9-4-7.79-5.95-11.68a.44.44,0,0,0-.47-.2c-2.77,1-1,5-.39,6.82,1.44,4.34,2.85,8.7,4.29,13l.75-.33q-10-23.24-21.08-46.05c-.19-.39-.77-.17-.77.22-.34,10.55,4.12,20.35,8.46,29.71.25-.14.47-.28.72-.41a2.94,2.94,0,0,0-3.21-1.36.39.39,0,0,0-.29.46s0,0,0,0a110.12,110.12,0,0,0,12.34,24.55C-411.19,227.71-410.47,227.29-410.77,226.85Z" transform="translate(479.6 0.17)"/><path class="cls-2" d="M-465.45,280.23c9.58-4.61,19.68-9.3,30.61-8.2,5.17.52,10.18,2,15.33,2.68a32.05,32.05,0,0,0,7.83.16c2.43-.3,4.73-1.18,7.11-1.71,3.07-.69,5.86,0,8.83.86,2.43.66,4.84,1.21,7.36.63.52-.11.3-.91-.23-.8-5,1.19-9.76-2.43-14.86-1.71-2.51.36-4.87,1.35-7.36,1.8a27.5,27.5,0,0,1-8,0c-5.23-.61-10.33-2.15-15.58-2.73a38.84,38.84,0,0,0-15.19,1.57,105,105,0,0,0-16.26,6.75C-466.36,279.73-465.92,280.45-465.45,280.23Z" transform="translate(479.6 0.17)"/><path class="cls-2" d="M-409.28,303.12a102.63,102.63,0,0,0,9.5-4.61c1.6-.91,3.18-1.85,4.75-2.84a32.69,32.69,0,0,1,4.38-2.87c1.74-.72,4.37.63,6.11,1.16s3.71,1.13,5.54,1.71l11.34,3.48c.5.16.72-.64.22-.8l-12.16-3.73c-1.93-.61-3.87-1.19-5.81-1.8-1.49-.47-3.37-1.43-4.95-1.05s-2.79,1.63-4,2.46c-1.6,1-3.26,2.07-4.92,3a96,96,0,0,1-10.38,5.11C-410.19,302.6-409.75,303.32-409.28,303.12Z" transform="translate(479.6 0.17)"/><path class="cls-2" d="M-374.85,304c2.1-1,4.2-2.13,6.31-3.18,1.93-1,4-2.32,6.22-2.51s4,1.24,5.92,2.1a15.41,15.41,0,0,0,5.18,1.24c4.15.22,8-1.85,12.15-1.63,3.29.2,6.61,2.9,9.85,1.19.47-.25.05-1-.42-.72-2,1.08-4.2,0-6.2-.6a12,12,0,0,0-5.17-.61c-4.26.44-8.16,2.23-12.54,1.21-3.62-.83-6.39-3.84-10.29-2.7a31.88,31.88,0,0,0-5.15,2.34c-2.1,1-4.2,2.13-6.31,3.18C-375.74,303.53-375.32,304.23-374.85,304Z" transform="translate(479.6 0.17)"/><path class="cls-2" d="M-358.69,298a24.82,24.82,0,0,1-4.54-5.06c-.58-.85-1.11-1.76-1.61-2.67a12.87,12.87,0,0,1-.66-1.41c-.17-.39-.33-.75-.47-1.13a.92.92,0,0,1,.33-1.16l.75-.34a33.34,33.34,0,0,1-5.59-14.91l-.72.31,1.52,1.93c.31.39.89-.11.67-.5A58.06,58.06,0,0,1-376.46,245l-.72.3a13.74,13.74,0,0,1,4.21,5.64l.75-.34A21.24,21.24,0,0,1-373.55,236h-.8q8.49,24.31,17,48.6c.16.5,1,.28.8-.22a77.16,77.16,0,0,1-4.19-25.87l-.72.31a9.68,9.68,0,0,1,3.13,5.69c.08.47.83.36.8-.11-.08-1.69-.19-3.4-.28-5.08-.22.11-.41.25-.63.36,1.46.94,1.74,3.42,2.21,5s1,3.31,1.52,5c1,3.42,2.08,6.82,3.1,10.24,2.08,6.82,4.15,13.67,6.23,20.49.16.5,1,.3.8-.22-2.24-7.35-4.46-14.72-6.7-22.06-1.08-3.59-2.18-7.18-3.26-10.77-.56-1.85-1.11-3.68-1.66-5.53A4.76,4.76,0,0,0-358,259a.44.44,0,0,0-.59.16.46.46,0,0,0-.05.2c.08,1.68.2,3.39.28,5.08.28,0,.55-.09.8-.11a10.23,10.23,0,0,0-3.35-6,.43.43,0,0,0-.61,0,.39.39,0,0,0-.11.27,77.83,77.83,0,0,0,4.21,26.07l.8-.22-17-48.6a.42.42,0,0,0-.53-.27.41.41,0,0,0-.27.27A22.25,22.25,0,0,0-373,251.11c.19.41.94.11.75-.34a14.27,14.27,0,0,0-4.43-6,.43.43,0,0,0-.61,0,.41.41,0,0,0-.11.28,58.76,58.76,0,0,0,7.57,28.45l.66-.49-1.52-1.94a.43.43,0,0,0-.61,0,.41.41,0,0,0-.11.28,33.93,33.93,0,0,0,5.7,15.32.41.41,0,0,0,.58.09.43.43,0,0,0,.17-.42,1,1,0,0,0-1.13-.86,1,1,0,0,0-.56.28c-1.16.83,0,2.79.38,3.73a26.33,26.33,0,0,0,6.84,9.09C-358.86,298.9-358.28,298.32-358.69,298Z" transform="translate(479.6 0.17)"/><path class="cls-2" d="M-387.6,236.05c-.36-5.19,9.08-2.21,11.71-1.71l12.92,2.4,25.84,4.8c.53.11.75-.69.23-.8l-29.61-5.52L-381,232.51c-1.74-.33-3.76-.69-5.39.23a3.44,3.44,0,0,0-2,3.31C-388.44,236.53-387.6,236.53-387.6,236.05Z" transform="translate(479.6 0.17)"/><path class="cls-2" d="M-342.89,240.63c2.88.31,4.65-2.43,6.89-3.75,1.91-1.11,3.57-.25,5.53.14a20.84,20.84,0,0,0,6.64.22c.53-.06.53-.89,0-.83a20.31,20.31,0,0,1-7.41-.42c-1.47-.38-2.8-.85-4.26-.27-2.61,1-4.38,4.42-7.39,4.08C-343.42,239.75-343.42,240.58-342.89,240.63Z" transform="translate(479.6 0.17)"/><path class="cls-2" d="M-290.12,293.74c6.64-2.32,13.33-4.64,20.2-6.3a82.45,82.45,0,0,1,21.75-2.18c7.27.22,14.5,1,21.75,1.71s14.55,1.35,21.83,2c8.35.78,16.74,1.55,25.1,2.35.52.06.52-.77,0-.83l-44.78-4.17c-14.36-1.32-28.8-3.28-43.11-.33-7.86,1.63-15.44,4.28-23,6.9C-290.84,293.1-290.6,293.9-290.12,293.74Z" transform="translate(479.6 0.17)"/><path class="cls-2" d="M-260.87,266.53c5-1,9.6-3.12,14.27-5a54.8,54.8,0,0,1,15.44-3.83,110.46,110.46,0,0,1,16.27.13c5.43.34,10.85.72,16.3,1.11,6.34.47,12.7,1,19,1.55.53.05.53-.78,0-.83q-16.86-1.5-33.73-2.57c-10.71-.69-21.25-1-31.46,2.82-5.43,2-10.68,4.58-16.38,5.79A.44.44,0,0,0-260.87,266.53Z" transform="translate(479.6 0.17)"/><path class="cls-2" d="M-197.09,234.72a85.94,85.94,0,0,1,12.56-8.19,18.79,18.79,0,0,1,6.93-2.22,37.41,37.41,0,0,1,7.83.64c5.23.63,10.49,1,15.74,1.35,3.49.22,7.92.72,10.38-2.32.33-.41-.25-1-.58-.58-2.8,3.45-8.69,2.16-12.51,1.91-5.26-.36-10.46-.86-15.69-1.52a21.51,21.51,0,0,0-6.7-.08,21.38,21.38,0,0,0-6.25,2.31,91.64,91.64,0,0,0-12.15,8C-197.92,234.34-197.51,235.05-197.09,234.72Z" transform="translate(479.6 0.17)"/><path class="cls-2" d="M-349.42,230.17c3.93-3,7.88-5.89,11.81-8.84,3.77-2.82,7.28-5.77,12.21-6a109.22,109.22,0,0,1,14,.69q7.47.61,14.85,1.66c4.16.58,9.11,2.12,13,0,.47-.25,0-1-.42-.72a10.4,10.4,0,0,1-6.5.83c-2.41-.3-4.82-.72-7.22-1-4.65-.63-9.33-1.16-14-1.55a102.39,102.39,0,0,0-14-.66c-4.29.25-7.47,2.46-10.82,5-4.46,3.32-8.88,6.66-13.34,10C-350.25,229.78-349.84,230.53-349.42,230.17Z" transform="translate(479.6 0.17)"/><path class="cls-2" d="M-193.74,259.36A32.78,32.78,0,0,1-192.6,254c.25-.83.5-1.66.83-2.49.19-.49.72-1.32,1.44-1.13.36.11.52,1.35.55,1.6a.4.4,0,0,0,.42.39.42.42,0,0,0,.38-.28c1.31-4.22,2.8-8.86,6.78-11.32-.22-.11-.41-.25-.63-.36v2.1a.42.42,0,0,0,.45.4.44.44,0,0,0,.33-.18c2.46-5.11,5.14-10.46,10.12-13.56-.19-.16-.41-.3-.61-.47a160.66,160.66,0,0,1-8.73,18.83c-.22.39.34.88.67.5a29.5,29.5,0,0,1,6.17-6l-.58-.58c-3.07,6.46-6.42,12.76-10.1,18.89a.4.4,0,0,0,.15.56.41.41,0,0,0,.57-.15h0q5.46-9.19,10.1-18.89c.16-.33-.2-.83-.58-.58a31.11,31.11,0,0,0-6.34,6.16l.66.5a164.15,164.15,0,0,0,8.78-19c.13-.33-.34-.64-.61-.47-5.12,3.17-7.89,8.61-10.43,13.86.24.08.52.14.77.22v-2.1a.43.43,0,0,0-.45-.41.41.41,0,0,0-.19.05c-4.15,2.57-5.78,7.38-7.14,11.82l.8.11c-.13-1.41-1.41-3.81-3-2a9.87,9.87,0,0,0-1.34,3.51,38.09,38.09,0,0,0-1.24,5.58C-194.6,259.66-193.83,259.88-193.74,259.36Z" transform="translate(479.6 0.17)"/><path class="cls-2" d="M-387.08,212.74a31.14,31.14,0,0,1,6.72-3,19.09,19.09,0,0,1,7.53-.11l15,2c.53.08.53-.75,0-.83-5.34-.72-10.7-1.49-16-2.13a17.66,17.66,0,0,0-7.2.39,33.67,33.67,0,0,0-6.45,2.9.43.43,0,0,0-.19.59A.43.43,0,0,0-387.08,212.74Z" transform="translate(479.6 0.17)"/><path class="cls-2" d="M-218.76,25.43c2-1.68,4.79-1.35,7-.27,1.66.8,3,2.43,5,2.51s3.29-1.16,4.81-2a4.84,4.84,0,0,1,3.24-.64,17.55,17.55,0,0,1,3.46,1.47c3.73,1.63,6.22-.64,9.38-2.43a6.85,6.85,0,0,1,2.85-1,7.69,7.69,0,0,1,3.62,1c1.83.78,3.21,1.08,5.07.33a7,7,0,0,1,5.37.06,28.63,28.63,0,0,0,3.65,1.27c1.91.44,4,.33,5.39-1.13.39-.39-.22-1-.58-.58-1.85,1.88-4.67,1-6.8.16s-4.38-1.71-6.67-.85c-1.44.55-2.41.94-4,.41-1-.36-2-.94-3.1-1.24a6.08,6.08,0,0,0-4.65.52c-1.71.86-3.21,2.21-5,2.93-2.38.94-4.23-.3-6.39-1.21a5.56,5.56,0,0,0-4.65-.09c-1.91.86-3.76,2.74-6,1.94a21.26,21.26,0,0,1-3.21-2,9.94,9.94,0,0,0-2.94-1.05,6.37,6.37,0,0,0-5.42,1.27.43.43,0,0,0,.15.6A.45.45,0,0,0-218.76,25.43Z" transform="translate(479.6 0.17)"/><path class="cls-3" d="M-208.8,44.29a.41.41,0,0,0,.41-.41.41.41,0,0,0-.41-.41.41.41,0,0,0-.41.41A.41.41,0,0,0-208.8,44.29Z" transform="translate(479.6 0.17)"/><path class="cls-2" d="M-203.26,47.3c1.3-2.34,4.37-1.21,6.28-.44s3.62,1.25,5.64.55c1.66-.57,3.16-1.68,4.87-2.07,2.38-.55,3.74,1.47,5.9,1.94,3.37.74,6.78-3,10-1.44a4.73,4.73,0,0,0,2.54.94,17,17,0,0,0,2.8-.75,11,11,0,0,1,7.72,1.16c.47.25.88-.47.41-.71a12.43,12.43,0,0,0-4.78-1.5,10.29,10.29,0,0,0-2.6.09c-1,.14-2,.58-3,.77-1.35.25-1.93-.41-3-.88a4.36,4.36,0,0,0-1.74-.31,13.53,13.53,0,0,0-4,1.11c-1.63.61-3.37,1.19-5,.36-1.41-.69-2.52-1.74-4.18-1.74-3.43,0-5.84,3.31-9.46,2.32-2.69-.75-7-3.37-9,.16A.38.38,0,1,0-203.26,47.3Z" transform="translate(479.6 0.17)"/><path class="cls-2" d="M-230.11,80.36a5.82,5.82,0,0,1,6.37-.47c1.19.55,2.46,1.08,3.71.33.72-.44,1.19-1.13,2-1.38a5.22,5.22,0,0,1,2.77.14,28.48,28.48,0,0,0,4.73,1.19c1.94.13,3.71-.69,5.59-.89s3.44,1,5.32,1.3,3.23-1.22,5.06-.94c2.21.33,4.4,1.08,6.59,1.63a.42.42,0,0,0,.51-.29.42.42,0,0,0-.29-.51,52.54,52.54,0,0,0-7-1.71c-2-.22-3.43,1.41-5.43.8-1.85-.55-3.18-1.36-5.17-1.08s-4.07,1.13-6.25.66c-1.69-.36-3.32-1.16-5.07-1.27a4.6,4.6,0,0,0-1.91.28c-.77.3-1.19.94-1.91,1.35-1.66,1-3.9-1.07-5.67-1.21a6.5,6.5,0,0,0-4.56,1.46C-231.13,80.11-230.52,80.69-230.11,80.36Z" transform="translate(479.6 0.17)"/><path class="cls-2" d="M-388.74,20.1a.41.41,0,0,0,.41-.41.41.41,0,0,0-.41-.41.41.41,0,0,0-.41.41.41.41,0,0,0,.41.41Z" transform="translate(479.6 0.17)"/><path class="cls-2" d="M-386.31,20.74c.5-2.46,3.76-.88,4.95-.14,1.36.86,2.8,1.63,4.46,1.16s3-2.07,5-2.18,3.71.77,5.48,1.33a8.85,8.85,0,0,0,4.7.41c1.86-.44,3.43-1.74,5.31-2.07,3.71-.64,7.06,2.37,10.82,1.21.5-.16.31-1-.22-.8-3.93,1.25-7.66-2.23-11.65-1-2,.63-3.76,2.07-6,2-2.08-.09-4-1.08-5.92-1.58a6.86,6.86,0,0,0-4.62.2c-.86.38-1.61,1-2.47,1.43a3.92,3.92,0,0,1-3.87-.44c-1.39-.8-2.58-1.74-4.26-1.6a2.45,2.45,0,0,0-2.47,1.9C-387.19,21-386.39,21.26-386.31,20.74Z" transform="translate(479.6 0.17)"/><path class="cls-2" d="M-383.79,182c3.29-1.38,6.61,1.08,9.93,1.24a20.68,20.68,0,0,0,5.07-.66,9.79,9.79,0,0,1,6,.41,4.52,4.52,0,0,0,3.65.36c.72-.27,1.33-.74,2.05-1a7.45,7.45,0,0,1,2.49-.33c3,0,5.92,1.07,8.75-.25.47-.22.05-.94-.42-.72-3,1.41-6.36-.14-9.54.19-1.53.17-2.52,1.05-3.93,1.47-1.69.49-3.35-.94-5-1.19-3.57-.55-7,1.44-10.55.72-2.87-.58-5.78-2.27-8.71-1C-384.48,181.4-384.26,182.2-383.79,182Z" transform="translate(479.6 0.17)"/><path class="cls-3" d="M-443.6,141.3a4.37,4.37,0,0,0,4.38-4.36h0a4.37,4.37,0,0,0-4.38-4.36h0a4.37,4.37,0,0,0-4.37,4.36A4.37,4.37,0,0,0-443.6,141.3Z" transform="translate(479.6 0.17)"/><path class="cls-3" d="M-189.12,111.31a3.07,3.07,0,0,0,3.07-3.06,3.09,3.09,0,0,0-3.07-3.07,3.07,3.07,0,0,0-3.08,3.07,3.06,3.06,0,0,0,3.08,3.06Z" transform="translate(479.6 0.17)"/><path class="cls-3" d="M-216.77,4.53a2.26,2.26,0,0,0,2.27-2.25h0A2.27,2.27,0,0,0-216.75,0h0A2.27,2.27,0,0,0-219,2.27h0A2.27,2.27,0,0,0-216.77,4.53Z" transform="translate(479.6 0.17)"/><path class="cls-3" d="M-316.72,200.9a2.83,2.83,0,0,0,2.83-2.82,2.83,2.83,0,0,0-2.83-2.82,2.82,2.82,0,0,0-2.82,2.82h0a2.82,2.82,0,0,0,2.82,2.82Z" transform="translate(479.6 0.17)"/><path class="cls-3" d="M-446.83,40.93a3.24,3.24,0,0,0,3.24-3.24,3.24,3.24,0,0,0-3.24-3.23,3.23,3.23,0,0,0-3.23,3.23h0A3.24,3.24,0,0,0-446.83,40.93Z" transform="translate(479.6 0.17)"/><path class="cls-3" d="M-335.2,154.28a1.85,1.85,0,0,0,1.85-1.85h0a1.85,1.85,0,0,0-1.85-1.85h0a1.85,1.85,0,0,0-1.85,1.85h0a1.85,1.85,0,0,0,1.85,1.85Z" transform="translate(479.6 0.17)"/><path class="cls-3" d="M-160.21,170a2.81,2.81,0,0,0,2.82-2.8h0a2.82,2.82,0,0,0-2.82-2.82,2.82,2.82,0,0,0-2.82,2.82,2.81,2.81,0,0,0,2.81,2.81Z" transform="translate(479.6 0.17)"/><path class="cls-3" d="M-467.86,216.58a2.1,2.1,0,0,0,2.11-2.09h0a2.1,2.1,0,0,0-2.1-2.1h0a2.1,2.1,0,0,0-2.1,2.1h0a2.1,2.1,0,0,0,2.1,2.1Z" transform="translate(479.6 0.17)"/><path class="cls-4" d="M-388.77,68.37q3.15-6.92,6.47-13.75c.22-.47-.47-.91-.72-.41Q-386.33,61-389.49,68C-389.71,68.43-389,68.87-388.77,68.37Z" transform="translate(479.6 0.17)"/><path class="cls-4" d="M-389.33,68.87q14.61,20,29.81,39.57c.33.42.91-.16.58-.58q-15.12-19.5-29.67-39.4C-388.91,68-389.6,68.46-389.33,68.87Z" transform="translate(479.6 0.17)"/><path class="cls-4" d="M-382.1,54.15c1.16-.6,2.29-1.24,3.46-1.85.47-.25.05-1-.42-.72-1.16.61-2.3,1.25-3.46,1.85A.42.42,0,1,0-382.1,54.15Z" transform="translate(479.6 0.17)"/><path class="cls-4" d="M-377.95,52.36H-352a.43.43,0,0,0,.35-.48.42.42,0,0,0-.35-.35h-25.93a.42.42,0,0,0-.35.48A.41.41,0,0,0-377.95,52.36Z" transform="translate(479.6 0.17)"/><path class="cls-4" d="M-333.76,68c-1.74-4.61-3.54-9.17-5.4-13.75-.19-.5-1-.28-.8.22q2.77,6.82,5.4,13.75C-334.37,68.71-333.6,68.53-333.76,68Z" transform="translate(479.6 0.17)"/><path class="cls-4" d="M-334.67,68.4q-12.18,19.89-24.83,39.49c-.3.44.42.86.72.41q12.66-19.59,24.83-39.48a.42.42,0,0,0-.22-.55A.42.42,0,0,0-334.67,68.4Z" transform="translate(479.6 0.17)"/><path class="cls-4" d="M-339.6,53.38l-3-1.85c-.44-.28-.86.41-.42.72l2.91,1.85A.44.44,0,0,0-339.6,53.38Z" transform="translate(479.6 0.17)"/><path class="cls-4" d="M-343.5,51.45h-21.64a.42.42,0,0,0-.35.48.41.41,0,0,0,.35.35h21.64a.42.42,0,0,0,.38-.45A.43.43,0,0,0-343.5,51.45Z" transform="translate(479.6 0.17)"/><path class="cls-4" d="M-388.44,68.79l14.86-6.38c.5-.22.05-.91-.41-.72l-14.86,6.38C-389.32,68.29-388.91,69-388.44,68.79Z" transform="translate(479.6 0.17)"/><path class="cls-4" d="M-382,53.9a77.35,77.35,0,0,1,9,2,.42.42,0,0,0,.5-.32.41.41,0,0,0-.28-.49,73,73,0,0,0-9-2C-382.27,53-382.52,53.82-382,53.9Z" transform="translate(479.6 0.17)"/><path class="cls-4" d="M-373.19,55.73c.66,2.07,1.24,4.14,1.74,6.27.11.52.91.3.8-.23-.49-2.12-1.08-4.19-1.74-6.26C-372.6,55-373.36,55.2-373.19,55.73Z" transform="translate(479.6 0.17)"/><path class="cls-4" d="M-371.92,55.81h22.22a.43.43,0,0,0,.35-.48.42.42,0,0,0-.35-.35h-22.22a.42.42,0,0,0-.35.48A.41.41,0,0,0-371.92,55.81Z" transform="translate(479.6 0.17)"/><path class="cls-4" d="M-350.06,56c-.28,1.51-.55,3.06-.83,4.58-.08.52.72.75.8.22.28-1.52.56-3.06.83-4.58C-349.17,55.67-350,55.45-350.06,56Z" transform="translate(479.6 0.17)"/><path class="cls-4" d="M-371,62.05h19.46a.43.43,0,0,0,.35-.48.42.42,0,0,0-.35-.35H-371a.42.42,0,0,0-.35.48A.41.41,0,0,0-371,62.05Z" transform="translate(479.6 0.17)"/><path class="cls-4" d="M-348.9,55.81l9-1.91c.53-.11.31-.91-.22-.8l-9,1.91C-349.6,55.12-349.42,55.92-348.9,55.81Z" transform="translate(479.6 0.17)"/><path class="cls-4" d="M-350.28,61.8c2.79.44,5.39,2,7.94,3.21l8.11,3.81c.47.22.91-.5.41-.72l-8.6-4c-2.44-1.16-5-2.63-7.64-3.07C-350.6,60.92-350.81,61.72-350.28,61.8Z" transform="translate(479.6 0.17)"/><path class="cls-4" d="M-370.76,63.32q5.4,22.2,10.77,44.43a.42.42,0,0,0,.51.29.42.42,0,0,0,.29-.51h0q-5.4-22.2-10.77-44.43a.42.42,0,0,0-.56-.21A.43.43,0,0,0-370.76,63.32Z" transform="translate(479.6 0.17)"/><path class="cls-4" d="M-351.44,64.32c-3.38,14.21-6.16,28.66-8.33,43.21-.08.52.72.74.8.22q3.24-21.79,8.37-43.22a.45.45,0,0,0-.32-.53A.44.44,0,0,0-351.44,64.32Z" transform="translate(479.6 0.17)"/><path class="cls-4" d="M-351.17,36.67a29.69,29.69,0,0,0,2.05-9.94.42.42,0,0,0-.83,0,29.42,29.42,0,0,1-2,9.72C-352.16,37-351.36,37.14-351.17,36.67Z" transform="translate(479.6 0.17)"/><path class="cls-4" d="M-345.49,37.23a45.49,45.49,0,0,1,9-7.9c.44-.31,0-1-.42-.72a45.7,45.7,0,0,0-9.16,8C-346.44,37-345.85,37.61-345.49,37.23Z" transform="translate(479.6 0.17)"/><path class="cls-4" d="M-340,42.33A29.09,29.09,0,0,1-329.5,41.2a.42.42,0,0,0,0-.83,29.64,29.64,0,0,0-10.76,1.16C-340.76,41.7-340.6,42.53-340,42.33Z" transform="translate(479.6 0.17)"/><path class="cls-2" d="M-398.35,23A13.69,13.69,0,0,1-406,36a.44.44,0,0,0-.13.6.5.5,0,0,0,.13.12c4.51,2.7,6.58,7.67,7.77,12.56a.41.41,0,0,0,.52.27.42.42,0,0,0,.29-.49C-398.68,44-400.89,38.83-405.6,36v.72A14.51,14.51,0,0,0-397.52,23C-397.54,22.45-398.37,22.45-398.35,23Z" transform="translate(479.6 0.17)"/><path class="cls-2" d="M-398,23A14.45,14.45,0,0,0-390,36.76V36c-4.73,2.81-7,8-8.19,13.11a.42.42,0,0,0,.35.48.44.44,0,0,0,.45-.25c1.19-4.92,3.27-9.92,7.8-12.62a.43.43,0,0,0,.12-.6.46.46,0,0,0-.12-.12A13.69,13.69,0,0,1-397.24,23C-397.18,22.45-398,22.45-398,23Z" transform="translate(479.6 0.17)"/><path d="M-263.31,230.28a39.75,39.75,0,0,0,3.82-1.88c2.54-1.41,3.82-2.13,4.59-3.26,1-1.49.61-2.29,1.91-3.78a6.68,6.68,0,0,1,2.3-1.74c2.05-.86,4,.16,7.14,1.3a75.55,75.55,0,0,0,9.82,2.61c1.83.42,4,.83,7.25,1.83.91.27,1.63.52,2.13.69a5.18,5.18,0,0,1-.88,3.42,4.91,4.91,0,0,1-2,1.55,12.31,12.31,0,0,1-6.18.77c-3.87-.16-2.27.39-11.4.55h-4.76c-1.41,1-2.82,2-4.26,3-2.43,1.77-4.76,3.54-7,5.28C-261.6,237.15-262.48,233.7-263.31,230.28Z" transform="translate(479.6 0.17)"/><path class="cls-5" d="M-274.85,194.93c-2,1-2.21,1.44-9.63,7.73-11.57,9.81-12.84,10.33-23.33,19.47-10,8.73-11.92,10.91-13.83,13.78a36.37,36.37,0,0,0-6.12,16.29c-.41,4-1,9.5,2.55,13.87a14.07,14.07,0,0,0,6.06,4.22c2.9,1.11,5.28,1,9.57.66a62.59,62.59,0,0,0,11.76-2,68,68,0,0,0,11.74-4.53c5.14-2.54,7.36-4.42,14.38-9.14,3.13-2.1,7.75-5.17,13.56-8.7a17.86,17.86,0,0,0-.25-6.27,22.23,22.23,0,0,0-3.81-7.78,42.26,42.26,0,0,0-3.49-4.5,61.51,61.51,0,0,0,7.64-6.88,48.21,48.21,0,0,0,7.45-9.93c3.1-5.63,6.2-11.32,4.21-15.24C-249.53,189.82-264.42,189.53-274.85,194.93Z" transform="translate(479.6 0.17)"/><path class="cls-6" d="M-250.06,197.94a69.77,69.77,0,0,1-8.33,14.33c-6,8-12.11,12.4-21.3,18.95-26,18.5-33,22.72-32.18,24.49,1,2.4,15.69-1.91,17.82-2.54a113,113,0,0,0,34.17-16.82c-1.82-2.79-3.65-5.58-5.48-8.34a39.22,39.22,0,0,0,8.25-7.92A32.37,32.37,0,0,0-251.5,210,30.54,30.54,0,0,0-250.06,197.94Z" transform="translate(479.6 0.17)"/><path d="M-275,194.9c-9.85,7.32-19.45,15-28.69,23-4.43,3.84-8.86,7.68-13,11.8-3.68,3.64-7.11,7.67-9.19,12.48a33,33,0,0,0-2.24,16.1c.44,4.44,2.08,8.92,6.14,11.24,4.27,2.4,9.63,2.15,14.34,1.65A61.5,61.5,0,0,0-290.72,267c12-4.89,21.47-14,32.84-20.07a.41.41,0,0,0-.41-.72c-9.49,5-17.57,12.34-27.09,17.4a61.39,61.39,0,0,1-15.89,5.77c-5.11,1.07-10.87,1.9-16.07.91a12,12,0,0,1-6.53-3.29,13,13,0,0,1-3.08-6.47,32.14,32.14,0,0,1,1.16-16.16c1.71-5,5.06-9.25,8.71-13,3.8-3.9,8-7.49,12-11q14.74-12.92,30.52-24.63C-274.13,195.32-274.52,194.6-275,194.9Z" transform="translate(479.6 0.17)"/><path d="M-302.08,251.53c9.08-3.5,17.3-8.75,25.1-14.49,3.85-2.82,7.64-5.75,11.4-8.68a56,56,0,0,0,10.13-9.69c.33-.41-.39-.83-.72-.41a57.54,57.54,0,0,1-10.38,9.83c-3.71,2.9-7.44,5.77-11.26,8.56-7.64,5.58-15.63,10.71-24.49,14.11C-302.8,250.91-302.6,251.71-302.08,251.53Z" transform="translate(479.6 0.17)"/><path d="M-266,228.26a21.11,21.11,0,0,1,7.39,18.34c0,.52.78.52.83,0a22,22,0,0,0-7.66-18.92C-265.8,227.32-266.38,227.9-266,228.26Z" transform="translate(479.6 0.17)"/><path d="M-258.6,238.89c1.57-.47,3-1.79,4.29-2.73l5-3.48c.44-.3,0-1-.42-.72l-4.51,3.18c-1.38,1-2.9,2.46-4.54,3a.42.42,0,0,0-.09.59A.47.47,0,0,0-258.6,238.89Z" transform="translate(479.6 0.17)"/><path d="M-263.2,230.66a33.27,33.27,0,0,0,8.6-5.24c.41-.36-.2-.94-.58-.58a31.31,31.31,0,0,1-8.22,5C-263.89,230.08-263.67,230.88-263.2,230.66Z" transform="translate(479.6 0.17)"/><path d="M-254.9,225.06a.43.43,0,0,0,.35-.48.42.42,0,0,0-.35-.35.42.42,0,0,0-.35.48A.41.41,0,0,0-254.9,225.06Z" transform="translate(479.6 0.17)"/><path d="M-253.9,224.06a9.37,9.37,0,0,1,1.85-3.17c1.19-1.16,2.63-1,4.15-.66,2.82.63,5.59,1.51,8.36,2.32a50.56,50.56,0,0,0,7.8,1.65,12,12,0,0,1,4.24,1,8.7,8.7,0,0,0,3,1.11c.53.05.53-.78,0-.83-1.52-.14-2.71-1.19-4.15-1.66a31.7,31.7,0,0,0-4.54-.69,75.48,75.48,0,0,1-9.6-2.46c-1.55-.44-3.1-.88-4.68-1.24a7,7,0,0,0-3.54-.19c-2,.6-3,2.76-3.73,4.55C-254.9,224.34-254.1,224.53-253.9,224.06Z" transform="translate(479.6 0.17)"/><path d="M-249.5,233.29a135.21,135.21,0,0,1,17.76-1.13,9.24,9.24,0,0,0,6-1.63,4.73,4.73,0,0,0,1.83-4.64c-.11-.53-.91-.31-.8.22.52,2.51-1.75,4.36-4,4.91s-4.79.28-7.14.33a106.47,106.47,0,0,0-13.82,1.18C-250.25,232.53-250,233.37-249.5,233.29Z" transform="translate(479.6 0.17)"/><path d="M-228.5,227.79l6.17-4.39a8.55,8.55,0,0,1,2.27-4.72,6.38,6.38,0,0,1,3.4-2.07c1.83-.36,3.24.47,4.82,1.19,2.54,1.16,5,1.6,9.88,2.54,3.84.71,5.78,1.07,8.55.93,3.76-.22,6.44-1.21,8,.36a2.68,2.68,0,0,1,.8,1.83c-.08,1.16-1.33,1.9-2.32,2.48a36.54,36.54,0,0,1-6.78,3.21c-6.14,1.79-9.24,2.7-11.9,2.92a38.19,38.19,0,0,1-8.94-.33c-1.08,3.7-4.34,6.08-7.41,5.88C-225.87,237.37-229.52,232.93-228.5,227.79Z" transform="translate(479.6 0.17)"/><path class="cls-5" d="M-268.24,203.38c.61-1.85,1.75-4.2,3.88-5a5,5,0,0,1,3.07,0c2.57.63,7.86-.28,18.4-2.08,5.23-.88,11.84-2.18,19.45-4.11,0,1.41,0,3.26-.08,5.41-.19,4.83-.69,8.48-.8,9.34a74.46,74.46,0,0,1-3.82,16c-.64,1.77-1.27,3.23-1.72,4.23a15.15,15.15,0,0,1,3.38,2.1A19,19,0,0,1-220,240.53c-.67.81-1.67,2-2.94,3.35-5.15,5.46-9.9,8.53-19,14.13-5.59,3.46-9.69,6-16.24,9.84-8,4.69-14.42,8.33-22.45,10.63a23.14,23.14,0,0,1-9.13.94,17.12,17.12,0,0,1-8.77-3,17,17,0,0,1-6.2-9.61c-1.24-4.44-.77-8.61.39-13,.8-3,3.71-13.11,13.81-24.46,2-2.27,7.77-7.38,19.23-17.59,2.77-2.46,5-4.48,6.56-5.8C-265.88,205.09-267,204.24-268.24,203.38Z" transform="translate(479.6 0.17)"/><path class="cls-6" d="M-230.6,195.73a103.89,103.89,0,0,1-3.21,10.05c-14.14,37.39-45.74,53.55-43.17,57.58,1.88,3,19.92-4.45,32.93-12.26a119.29,119.29,0,0,0,21.83-16.85,19.5,19.5,0,0,0-3.76-4.14,19.62,19.62,0,0,0-4.62-2.79,28.91,28.91,0,0,0,3-5.52,34.82,34.82,0,0,0,1.91-6.57,104.92,104.92,0,0,0,1.77-10.88,104.93,104.93,0,0,0,.58-12.15C-225.82,193.36-228.2,194.53-230.6,195.73Z" transform="translate(479.6 0.17)"/><path d="M-223.82,192.17a111.88,111.88,0,0,1-1,15.63A63,63,0,0,1-228,221.69c-1.85,4.78-5,8.26-8.88,11.54s-7.89,6.63-11.84,9.92c-4.54,3.78-9.11,7.53-13.64,11.32-.42.33.16.91.58.58,8.33-6.91,16.65-13.78,24.93-20.77,3.65-3.09,7-6.29,9-10.74a54.34,54.34,0,0,0,3.63-13.67,107,107,0,0,0,1.33-17.7.45.45,0,0,0-.45-.45.45.45,0,0,0-.45.45Z" transform="translate(479.6 0.17)"/><path d="M-267.77,204.15c1.14.61,2.27,1.22,3.44,1.83.47.25.88-.47.41-.72-1.13-.61-2.27-1.22-3.43-1.82C-267.82,203.19-268.24,203.91-267.77,204.15Z" transform="translate(479.6 0.17)"/><path d="M-264.33,205.65c-9.86,8-20.2,15.93-28.42,25.65-7.09,8.37-12.92,19-12.9,30.21,0,4.94,1.36,10.11,5,13.61s8.94,4.92,13.92,4.67c6.09-.3,11.87-2.71,17.29-5.36,5.82-2.84,11.32-6.21,16.86-9.55,11.4-6.91,24.12-13.34,32.68-23.86.33-.41-.25-1-.59-.58-7.16,8.84-17.24,14.5-26.84,20.3-5.28,3.2-10.51,6.46-15.91,9.5a79,79,0,0,1-16.63,7.51c-5.48,1.57-11.59,1.9-16.77-.83-5-2.6-7.52-7.62-8-13.09-1-11,4.54-22,11.26-30.43,8.39-10.47,19.34-18.81,29.69-27.2C-263.34,205.89-263.92,205.31-264.33,205.65Z" transform="translate(479.6 0.17)"/><path d="M-230,227.53a17.38,17.38,0,0,1,9.68,13.09c.09.52.89.3.81-.22a18,18,0,0,0-10-13.59C-230.11,226.53-230.52,227.27-230,227.53Z" transform="translate(479.6 0.17)"/><path d="M-228.39,228.21a12.84,12.84,0,0,0,2.93-1.91c1.11-.86,2.25-1.68,3.35-2.54.42-.33,0-1-.41-.72-1,.75-2,1.49-3,2.27a13.55,13.55,0,0,1-3.1,2.1C-229.08,227.6-228.89,228.4-228.39,228.21Z" transform="translate(479.6 0.17)"/><path d="M-221.69,223.43a24,24,0,0,1,2.1-4.72c1.22-2,3-1.83,5.09-1.3,3.18.8,6.23,2,9.44,2.73a67.74,67.74,0,0,0,19,1.44c.53,0,.53-.86,0-.83a66.08,66.08,0,0,1-22.3-2.32c-1.75-.5-3.43-1.13-5.18-1.63a9.5,9.5,0,0,0-4.29-.55,4,4,0,0,0-2.59,2.28,25.42,25.42,0,0,0-2.07,4.72C-222.66,223.7-221.86,223.93-221.69,223.43Z" transform="translate(479.6 0.17)"/><path d="M-220.5,236.77l6.2-4.73c.41-.33,0-1-.42-.71-2.08,1.57-4.12,3.14-6.2,4.72C-221.33,236.38-220.92,237.1-220.5,236.77Z" transform="translate(479.6 0.17)"/><path d="M-214.33,231.85c6.75,1.46,13.64.36,20-2.07,2.91-1.1,6.23-2.35,8.72-4.22,1.74-1.3,2-3.79-.31-4.67-.5-.19-.72.61-.22.8a1.62,1.62,0,0,1,1,2.06,1.67,1.67,0,0,1-.47.7,7,7,0,0,1-1.52,1.08c-1.14.63-2.3,1.21-3.46,1.76a53.49,53.49,0,0,1-7.64,2.93,32.38,32.38,0,0,1-15.91.83.41.41,0,0,0-.5.31A.41.41,0,0,0-214.33,231.85Z" transform="translate(479.6 0.17)"/><path class="cls-4" d="M-286.44,112.59a53.33,53.33,0,0,1,18.84-10.17,39.35,39.35,0,0,1,15.38-2A38.07,38.07,0,0,1-232.87,108a39.74,39.74,0,0,1,8,7.81q.47,29,1.24,58.1c.17,6,.34,12,.53,17.92a54.28,54.28,0,0,1-16.36,6.71c-16.32,3.73-29.91-1.24-35.42-3.65a130.77,130.77,0,0,0-1.82-21c-2.44-14.47-6.23-20.3-8.61-32.75A101.51,101.51,0,0,1-286.44,112.59Z" transform="translate(479.6 0.17)"/><path class="cls-5" d="M-236.41,117.36c-1.36,1.49-1.61,3.18-1.53,9.64.06,6.79.42,11.43.64,16.82.17,3.89.3,7,.22,11-.08,5.09-.41,9.26-.72,12-2.71,3-5.12,5.42-6.92,7.13a81.06,81.06,0,0,1-14.94,11.87c-2.57,1.52-4.79,2.63-6.28,3.32-1.36-.22-2.88-.56-4.54-1-3.93-1-5.56-1.88-8.52-1.88-.89,0-3.68,0-4,1-.25.83,1.3,2.12,2.52,2.76s1.63.41,2.77.94a7.12,7.12,0,0,1,2.6,2.15c-.53.75-1.33,1.88-2.21,3.34-1,1.71-1.25,2.38-2.44,4.42a22.73,22.73,0,0,1-2.43,3.78c-.86.8-1.39,1-5.23,2.68s-4.49,2.1-4.49,2.57.75.58,3.71,1.85a31.32,31.32,0,0,0,3.88,1.6,7.1,7.1,0,0,0,3.62.47,5.77,5.77,0,0,0,3.46-2.43,2.76,2.76,0,0,0,1.66.72,2.56,2.56,0,0,0,1.58-.58c1.74-1.24,2.6-3.53,4.31-6.1a30,30,0,0,1,3.13-3.9,24.55,24.55,0,0,1,2.8-2.59c1-.22,2.4-.55,4.12-1.05a94.14,94.14,0,0,0,15.52-6.13c2.35-1.13,5-2.63,10.3-5.58,4.59-2.57,7-4,9.07-6.82a21.57,21.57,0,0,0,2.35-4.06,26.84,26.84,0,0,0,2-7.46c.27-1.9.27-3,.3-8.92.06-7.59.06-6.68.06-7.45,0-11.13-.61-10.14-.8-20.35a32.83,32.83,0,0,0-.86-6.91,15,15,0,0,0-2.55-6,8.31,8.31,0,0,0-3.35-2.84A8.23,8.23,0,0,0-236.41,117.36Z" transform="translate(479.6 0.17)"/><path class="cls-7" d="M-227.53,115.35a63.39,63.39,0,0,1,2,9.14c.66,4.61.91,9.69-.58,23-1.25,11.1-1.86,16.65-3.46,21.84-2.3,7.41-4,12.79-9,17-3.27,2.74-6.84,4-14,6.52a113,113,0,0,1-12.87,3.68,52.34,52.34,0,0,1-10.16,10.33,52.16,52.16,0,0,1-10.08,6.08,6.57,6.57,0,0,0,4.46,1.07,6.67,6.67,0,0,0,4.43-2.65,2.89,2.89,0,0,0,2.15.66c1.77-.27,2.72-2.78,3.19-3.92,1-2.34,3.07-5.58,7.66-9.11a117.89,117.89,0,0,0,12-3.84,115,115,0,0,0,16-7.73c7.72-4.31,9.47-6.08,10.74-7.79a24.43,24.43,0,0,0,3.71-7.73c.74-2.51.88-5.33,1.16-10.82.19-4.09.19-7.24.19-9.61,0-4.09-.08-7.13-.16-9.75-.12-3.81-.34-8.29-.89-13.64-.41-3.9-.72-5.44-1.6-7.18A15.28,15.28,0,0,0-227.53,115.35Z" transform="translate(479.6 0.17)"/><path d="M-236.83,117.25c-1.44,3.59-1.6,7.46-1.52,11.3.08,4.22.3,8.42.5,12.64.38,8.56.66,17.15-.36,25.68-.06.53.77.53.83,0,1-8.33.77-16.76.38-25.12-.19-4.15-.41-8.29-.52-12.46-.11-4,0-8,1.49-11.82C-235.83,117-236.6,116.75-236.83,117.25Z" transform="translate(479.6 0.17)"/><path d="M-236.6,166.16a27.36,27.36,0,0,0-6.56,5.57,84.13,84.13,0,0,1-6.64,6.58A69,69,0,0,1-266,188.72c-.5.22-.06.94.41.72a68.56,68.56,0,0,0,15.65-9.91,70.54,70.54,0,0,0,6.59-6.35c2.16-2.35,4.32-4.72,7.14-6.27a.42.42,0,0,0,.18-.56A.42.42,0,0,0-236.6,166.16Z" transform="translate(479.6 0.17)"/><path d="M-265.83,188.77c-3-.63-6.11-1.3-9.16-2-1.52-.33-3.07-.74-4.62-1a3.91,3.91,0,0,0-2.85.31,2,2,0,0,0-.73,2.73,2,2,0,0,0,.59.64,9.16,9.16,0,0,0,3,1.32,7.84,7.84,0,0,1,4.15,2.6c.33.41,1.05,0,.72-.42a7.79,7.79,0,0,0-3.62-2.65,19.68,19.68,0,0,1-3.1-1.1c-.67-.36-1.52-.91-1-1.91s1.66-.85,2.52-.72c2.3.34,4.6,1,6.89,1.52s4.71,1,7.06,1.52C-265.52,189.68-265.3,188.88-265.83,188.77Z" transform="translate(479.6 0.17)"/><path d="M-276.12,193.53c-1.22,2.23-2.47,4.44-3.68,6.68-.61,1.07-1.14,2.23-1.86,3.28a6.75,6.75,0,0,1-2.9,2.19c-2.19,1-4.54,1.85-6.64,3-.94.56-1.55,1.55-.75,2.52,1,1.18,3,.71,4.29.49a20.48,20.48,0,0,0,5.23-1.68,21.08,21.08,0,0,0,8.49-7.48c.31-.44-.41-.85-.72-.41a20,20,0,0,1-7.44,6.79,19.23,19.23,0,0,1-4.57,1.71,12.93,12.93,0,0,1-2.76.45c-.86,0-1.08.16-1.5-.69-.52-.5-.47-.83.14-1l.56-.25c1.77-.83,3.56-1.63,5.34-2.46a8.77,8.77,0,0,0,3.68-2.43,40,40,0,0,0,2.76-4.8c1-1.85,2-3.7,3-5.52A.39.39,0,1,0-276.12,193.53Z" transform="translate(479.6 0.17)"/><path d="M-263.48,199.53a122,122,0,0,0,21.42-8.25c3.41-1.72,6.72-3.57,10-5.61,2.91-1.82,6-3.67,8.05-6.46.31-.44-.41-.86-.71-.42-2.16,2.93-5.54,4.84-8.58,6.71s-6.31,3.68-9.58,5.31a122.83,122.83,0,0,1-20.78,8C-264.2,198.88-264,199.68-263.48,199.53Z" transform="translate(479.6 0.17)"/><path d="M-236.28,118c2.3-4.5,8.19-3.48,11.1-.28,3.49,3.87,3.65,9.53,4,14.44a232.29,232.29,0,0,1,.33,32.31c-.33,5.22-1.1,10.74-4.59,14.89-.33.41.25,1,.58.58,3.17-3.76,4.26-8.51,4.69-13.26a175.2,175.2,0,0,0,.57-18.33c0-6.38-.35-12.79-.94-19.14-.44-4.78-1.3-10-5.25-13.23-3.38-2.7-9-2.62-11.18,1.6C-237.24,118.05-236.53,118.47-236.28,118Z" transform="translate(479.6 0.17)"/><path d="M-288.41,212.16c2,.91,4.46,2.29,6.75,2.29s3.85-1.85,5.34-3.23q6.42-6,12.87-11.9c.39-.36-.19-.94-.58-.58-3.62,3.37-7.25,6.71-10.87,10.08-1.61,1.46-3.27,3.56-5.29,4.47-2.38,1.08-5.65-.85-7.78-1.82C-288.46,211.22-288.88,211.94-288.41,212.16Z" transform="translate(479.6 0.17)"/><path d="M-277.15,211.58c.92,1.71,2.94,1,4-.16a81.41,81.41,0,0,0,5.31-7.82c.31-.44-.41-.85-.72-.41l-3.23,4.8c-.61.89-3.3,5.66-4.6,3.18A.43.43,0,0,0-277.15,211.58Z" transform="translate(479.6 0.17)"/><path d="M-283.6,210.23a3.14,3.14,0,0,0,2.77.44,2.15,2.15,0,0,0,.89-1.08,4.25,4.25,0,0,1,1.49-1.79c.44-.3,0-1-.41-.72a4.8,4.8,0,0,0-1.61,1.71c-.28.53-.44,1.16-1.16,1.22a3.16,3.16,0,0,1-1.55-.5C-283.6,209.29-284,210-283.6,210.23Z" transform="translate(479.6 0.17)"/><path class="cls-5" d="M-289.24,52.44a45.62,45.62,0,0,0-2.24,6.32,61.91,61.91,0,0,0-2,10,46.09,46.09,0,0,0-.36,9.39,35.63,35.63,0,0,0,1.41,8.26,26.15,26.15,0,0,0,4.62,9.53,23.75,23.75,0,0,0,7.61,6.26,25.16,25.16,0,0,0,5.12-.41,25.56,25.56,0,0,0,8-3c.25,1.41.58,2.9,1,4.45a60.18,60.18,0,0,0,3,8.45,15.63,15.63,0,0,0,3.93-1.19,16.17,16.17,0,0,0,7.55-7.72c-.42-1.6-.75-3.34-1.06-5.13a60.5,60.5,0,0,1-.11-17.57,7.2,7.2,0,0,0,2.69.39,7.73,7.73,0,0,0,4.59-2c.67-.56,3.68-3.23,3.57-7.21,0-.94-.08-3.23-1.71-4.47s-3.57-.72-5.07-.42a11.13,11.13,0,0,0-3.76,1.57,21.24,21.24,0,0,0,0-12.48c-.39-1.21-3-8.94-10.54-12.29C-273.33,38.53-285.7,45.34-289.24,52.44Z" transform="translate(479.6 0.17)"/><path class="cls-8" d="M-258,52.61a61.79,61.79,0,0,1,0,10.71,60.24,60.24,0,0,1-7.89,25A57.57,57.57,0,0,1-277.31,102a27.43,27.43,0,0,0,5.78-1.35,29.46,29.46,0,0,0,11.76-7.84,45.78,45.78,0,0,0,1.94,10.88,45.07,45.07,0,0,0,1.8,4.78c1.46-1.91,2.9-3.82,4.37-5.75-.31-1.79-.58-3.7-.78-5.66a93.94,93.94,0,0,1-.3-16.26,13.09,13.09,0,0,0,5-.83c8.36-3.32,13.12-16.49,8.61-23.67a11.46,11.46,0,0,0-3.24-3.23C-248.75,48.88-256.81,52.11-258,52.61Z" transform="translate(479.6 0.17)"/><path class="cls-4" d="M-291.26,57.94a22,22,0,0,1-.52-10,19.7,19.7,0,0,1,4.15-9.33c4.45-5.11,10-4.14,17.29-6.74,4.59-1.63,10.9-5.05,17.3-13.12q-.89,4.5-1.75,9a11.41,11.41,0,0,0,7.78-.69c5.7-2.79,6.2-9.53,6.22-9.83a17.57,17.57,0,0,1,1.39,9.3,17.8,17.8,0,0,1-2.24,6.57c.33.36,2.1,2.18,4.15,1.91,2.49-.33,4.81-3.73,4.15-8.12a20.59,20.59,0,0,1,1.05,7.59,20.64,20.64,0,0,1-2.44,8.65,4.78,4.78,0,0,0,3.63,1.21,4.7,4.7,0,0,0,3.82-3.28,29.35,29.35,0,0,1-1.55,7.59c-1.47,4.14-2.69,4.47-3.29,7.43-1,4.64,1.52,6.21.85,10.35-.55,3.48-2.82,5.66-5.7,8.45a39.65,39.65,0,0,1-16.27,9.31c.22-1.55.47-3.09.69-4.64a5.64,5.64,0,0,0,3.13.86c2.82-.11,4.59-2.63,5.53-4s2.88-4.11,1.91-6.9a6,6,0,0,0-3.12-3.29,7,7,0,0,0-7.78,2.43c-1.16-4.56-2.29-9.08-3.46-13.64l-11.76-7.43a22.52,22.52,0,0,0-13.14,1.55A22.37,22.37,0,0,0-291.26,57.94Z" transform="translate(479.6 0.17)"/><path d="M-291.67,57.83c-2.36,8.78-3.77,18.11-1.61,27.09,1.77,7.29,6.25,15.6,13.89,18,.5.17.72-.63.22-.8-7.66-2.37-12-11-13.53-18.31-1.85-8.56-.44-17.39,1.8-25.73A.4.4,0,1,0-291.67,57.83Z" transform="translate(479.6 0.17)"/><path d="M-278.78,102.75a30.26,30.26,0,0,0,26.4-23,.42.42,0,0,0-.29-.51.42.42,0,0,0-.51.29h0a29.46,29.46,0,0,1-25.6,22.37C-279.3,102-279.33,102.81-278.78,102.75Z" transform="translate(479.6 0.17)"/><path d="M-253.1,80c5.7,3.48,11.26-3.81,11.62-8.92a5,5,0,0,0-3.73-5.55,7,7,0,0,0-7,1.91c-.36.38.22,1,.58.58a6.14,6.14,0,0,1,5.81-1.8,4.87,4.87,0,0,1,3,1.85,5.68,5.68,0,0,1,.44,3.76c-.67,4.28-5.42,10.41-10.3,7.42a.43.43,0,0,0-.58.18A.43.43,0,0,0-253.1,80Z" transform="translate(479.6 0.17)"/><path d="M-253.15,79.94A60.8,60.8,0,0,0-252,102.86a.42.42,0,0,0,.51.29.42.42,0,0,0,.29-.51h0a59.67,59.67,0,0,1-1.13-22.47C-252.3,79.64-253.1,79.42-253.15,79.94Z" transform="translate(479.6 0.17)"/><path d="M-267.46,98.86a61.5,61.5,0,0,0,4,13c.22.49.94,0,.72-.42a58.59,58.59,0,0,1-3.93-12.81C-266.77,98.11-267.54,98.34-267.46,98.86Z" transform="translate(479.6 0.17)"/><path d="M-262.87,112A15.57,15.57,0,0,0-251,102.45c.2-.5-.61-.72-.8-.22a14.67,14.67,0,0,1-11.29,9C-263.6,111.26-263.39,112.06-262.87,112Z" transform="translate(479.6 0.17)"/><path d="M-266.8,99.83A4.59,4.59,0,0,0-264,98.45a39,39,0,0,0,3.21-2.82,19.14,19.14,0,0,0,4.32-6.41c.19-.49-.61-.71-.81-.22a17.42,17.42,0,0,1-3.79,5.72,29,29,0,0,1-2.29,2.15c-.89.75-2.16,2.18-3.41,2.13C-267.32,99-267.32,99.8-266.8,99.83Z" transform="translate(479.6 0.17)"/><path d="M-266.74,99.39a46.79,46.79,0,0,0,6.58-5.17c.39-.36-.19-1-.58-.58a45.94,45.94,0,0,1-6.42,5.06C-267.6,98.94-267.18,99.66-266.74,99.39Z" transform="translate(479.6 0.17)"/><path d="M-283,59.43a113.27,113.27,0,0,0-2.59,21.4.42.42,0,0,0,.43.41.46.46,0,0,0,.34-.19c1.08-1.71,2.16-3.45,3.24-5.16a.42.42,0,0,0-.22-.55.42.42,0,0,0-.5.13c-1.08,1.71-2.16,3.45-3.24,5.17.25.08.53.13.78.22a113.46,113.46,0,0,1,2.6-21.18C-282.1,59.12-282.9,58.9-283,59.43Z" transform="translate(479.6 0.17)"/><path d="M-281.9,91.21a9.91,9.91,0,0,1-1.22-4c-.09-1,.14-5,2-3.42,1,.86.85,2.73.88,4v1.76a10,10,0,0,1-.17,1.22c-.72.5-1.27.47-1.63-.06s-1,.2-.58.58c1.19,1.22,2.74,1.27,3.07-.63a16.4,16.4,0,0,0,.14-4.14c-.09-1.08-.09-2.63-.89-3.45-1.19-1.22-2.88-.09-3.35,1.21-.85,2.32,0,5.25,1.08,7.35C-282.38,92.1-281.66,91.68-281.9,91.21Z" transform="translate(479.6 0.17)"/><path d="M-276.18,66.36a3.89,3.89,0,0,0,4.59,3A3.9,3.9,0,0,0-268.71,67c.2-.5-.6-.72-.8-.22a3.08,3.08,0,0,1-4,1.72,3.07,3.07,0,0,1-1.88-2.33C-275.49,65.64-276.29,65.83-276.18,66.36Z" transform="translate(479.6 0.17)"/><path d="M-277.81,56.78a5.57,5.57,0,0,1,6.25-3,9.32,9.32,0,0,1,5.81,4.72.4.4,0,0,0,.56.15.41.41,0,0,0,.16-.56c-1.46-2.51-3.79-4.75-6.78-5.19a6.38,6.38,0,0,0-6.72,3.39C-278.75,56.86-278,57.27-277.81,56.78Z" transform="translate(479.6 0.17)"/><path d="M-294,57.69c.75-1.55,2-3.23,4-3.21s3.16,1.63,4.07,3c.28.44,1,0,.72-.41-1-1.69-2.63-3.43-4.79-3.45s-3.76,1.79-4.65,3.61C-295,57.74-294.25,58.16-294,57.69Z" transform="translate(479.6 0.17)"/><path d="M-289.13,70.2c.49,0,.89-1.82.89-4.06s-.4-4.06-.89-4.06-.88,1.82-.88,4.06S-289.6,70.2-289.13,70.2Z" transform="translate(479.6 0.17)"/><path class="cls-5" d="M-286.6,113.88c-.09,1-.2,2.43-.25,4.06a99.81,99.81,0,0,0,0,10.94,96.92,96.92,0,0,0,1.89,14c-1.11,1.27-2.77,3.15-4.9,5.36-4,4.23-6.12,6.38-9.44,8.62a24.26,24.26,0,0,1-7.59,3.67,11.37,11.37,0,0,1-5.43.36,10.62,10.62,0,0,1-6-4.11c-1.83-2.32-2.24-4.59-3-9a68.78,68.78,0,0,1-.83-10.44c-.09-2.27-.2-5-.14-8.73A135.33,135.33,0,0,1-321.4,114c.27-2.49.66-5.55,1.27-9-.47-.67-1-1.33-1.5-2s-1.08-1.41-1.63-2.1c-1.41,1.19-2.79,2.4-4.2,3.59a3.77,3.77,0,0,1-1.78.28,4,4,0,0,1-2.62-1.49,5,5,0,0,1-1.11-3.9c1.91-2.07,3.82-4.11,5.75-6.18a18.64,18.64,0,0,1,.67-4.45,19.35,19.35,0,0,1,1.22-3.2,12.9,12.9,0,0,1,1.49-2.32A15.24,15.24,0,0,1-320.49,80c-.8.36-1,.36-1,.3-.14-.22,1.16-1.85,3-2a4.45,4.45,0,0,1,2.37.52,6.19,6.19,0,0,1,1.8,1.33c1.72-1.47,3.43-2.92,5.15-4.37.61.36,1.22.78,1.83,1.19,1.41,1,2.68,1.94,3.82,2.87a12.87,12.87,0,0,1-1.61,1.69,12.6,12.6,0,0,1-3.07,1.93,3.28,3.28,0,0,1,1.94,1.46,4.38,4.38,0,0,1,0,3.07,12.84,12.84,0,0,1-.64,1.93,15.78,15.78,0,0,1-.17,4.5,16.79,16.79,0,0,1-2.57,6.3c0,1.08-.06,2.76,0,4.83.22,8.54,1.47,13.53,2.27,19.83a104.68,104.68,0,0,1,.8,15.63A29.85,29.85,0,0,0-304,139a33.94,33.94,0,0,0,6.39-7.64c2.16-3.12,3.57-5.44,5.48-8.53C-290.9,120.84-289,117.78-286.6,113.88Z" transform="translate(479.6 0.17)"/><path class="cls-8" d="M-311.73,88.67c-.59,1.27-1.17,2.57-1.75,3.89a116.91,116.91,0,0,0-4.2,11.44c-.25,5.74-.39,10.55-.5,14-.14,5.28.19,11.58.8,24.17.25,5.19.47,8.34,2.91,10.63s6.08,2.43,8.08,2.43c10.62,0,18.56-9.06,20.75-11.68a39.69,39.69,0,0,1-8.64,10.24,27.39,27.39,0,0,1-11.15,6.27c-4.4,1.16-6.39.91-6.91.8-3.8-.91-5.9-4.06-6.64-5.13-1.8-2.68-2.38-5.47-2.72-11.46-.33-6.16,0-7.79.14-16.27.08-8.09-.22-10.38.39-16,.36-3.28.8-6,1.16-7.81-1.08-1.13-2.16-2.27-3.24-3.37-.91.8-1.85,1.57-2.79,2.37-.61.53-1.25,1-1.85,1.55a4.55,4.55,0,0,1-2.22-.33c-2.21-.94-3.6-3.67-2.9-4.61.44-.64,1.6-.14,3.21-.14,2.76,0,4.62-1.38,8.3-4C-318.9,93.75-315.91,91.63-311.73,88.67Z" transform="translate(479.6 0.17)"/><path d="M-286.94,113.66c-6.39,8.81-11.12,18.92-19.2,26.43-.39.36.19.94.58.58,8.13-7.57,12.89-17.73,19.34-26.59C-285.89,113.66-286.6,113.25-286.94,113.66Z" transform="translate(479.6 0.17)"/><path d="M-310.74,161.53c11-.72,18.82-9.89,25.4-17.68.34-.41-.25-1-.58-.58-6.39,7.63-14.14,16.74-24.79,17.46A.4.4,0,1,0-310.74,161.53Z" transform="translate(479.6 0.17)"/><path d="M-315.94,83.73a4.93,4.93,0,0,0,3.6,4.66.42.42,0,0,0,.51-.29.42.42,0,0,0-.29-.51h0a4.1,4.1,0,0,1-3-3.86C-315.14,83.2-316,83.2-315.94,83.73Z" transform="translate(479.6 0.17)"/><path d="M-315.08,83.53c.27-2.4,4.56-.66,5.72-.06s2.27,1.16,2.52,2.54a7.63,7.63,0,0,1-.41,3.18.42.42,0,0,0,.29.51.42.42,0,0,0,.51-.29c.39-1.38.8-3,.22-4.31s-2.07-2-3.32-2.62a7.55,7.55,0,0,0-4.05-1,3.85,3.85,0,0,0-1.8.6c-.5.39-.39.67-.47,1.36C-316,84-315.14,84-315.08,83.53Z" transform="translate(479.6 0.17)"/><path d="M-307.53,89c-.08,2.1.39,4.15-.11,6.25a23.58,23.58,0,0,1-2.35,5.46c-.25.47.47.89.72.42a25.78,25.78,0,0,0,2.43-5.66c.53-2.16.06-4.28.14-6.47C-306.67,88.42-307.5,88.42-307.53,89Z" transform="translate(479.6 0.17)"/><path d="M-310,100.71c-.64,14.55,3.54,28.8,2.88,43.36a.42.42,0,0,0,.83,0c.66-14.56-3.52-28.81-2.88-43.36C-309.13,100.19-310,100.19-310,100.71Z" transform="translate(479.6 0.17)"/><path d="M-323.6,101a28.36,28.36,0,0,0,2.71,3.29c.36.39.94-.19.59-.58a26.54,26.54,0,0,1-2.58-3.12C-323.19,100.16-323.91,100.53-323.6,101Z" transform="translate(479.6 0.17)"/><path d="M-320.4,104.08a154,154,0,0,0-2.32,27.2c0,4.53.25,9.08.69,13.59.36,3.83.8,7.87,2.82,11.24,1.83,3.06,5,5.38,8.69,5.3.53,0,.53-.86,0-.83-5.12.14-8.41-4.42-9.6-8.89-1.33-4.92-1.44-10.28-1.63-15.33a151.16,151.16,0,0,1,2.18-32C-319.51,103.78-320.31,103.53-320.4,104.08Z" transform="translate(479.6 0.17)"/><path d="M-325.6,91.68c-2.6,2.18-5.12,4.47-7.49,6.88-.39.38.22,1,.58.58q3.6-3.61,7.49-6.88C-324.6,91.93-325.21,91.35-325.6,91.68Z" transform="translate(479.6 0.17)"/><path d="M-333.37,99.3a5.16,5.16,0,0,0,4.38,5.83,5.08,5.08,0,0,0,.87.05.41.41,0,0,0,.41-.41.41.41,0,0,0-.41-.41,4.39,4.39,0,0,1-4.48-4.29,5.09,5.09,0,0,1,.06-.77C-332.46,98.78-333.29,98.78-333.37,99.3Z" transform="translate(479.6 0.17)"/><path d="M-332.6,99.11a4.49,4.49,0,0,1,4.43,4.55,4.31,4.31,0,0,1-.11.94c-.11.53.69.75.8.23a5.3,5.3,0,0,0-3.9-6.4,5,5,0,0,0-1.22-.15.42.42,0,0,0-.35.48A.41.41,0,0,0-332.6,99.11Z" transform="translate(479.6 0.17)"/><path d="M-327.15,104.69c3.16-2.87,6.37-5.72,9.44-8.67a53.12,53.12,0,0,0,4-4.23c.69-.8,2.43-2.37,2.46-3.48a.44.44,0,0,0-.19-.36h-.14a.39.39,0,0,0-.5,0,.44.44,0,0,0-.08.11c-.33.42.25,1,.58.58a.44.44,0,0,0,.08-.11,2.2,2.2,0,0,1-.5.06q-.08-.37-.24,0a2.32,2.32,0,0,1-.45.58c-.33.41-.63.82-1,1.24-.56.69-1.17,1.35-1.75,2-1.22,1.33-2.49,2.57-3.79,3.79-2.82,2.65-5.7,5.22-8.55,7.84C-328.14,104.47-327.53,105.05-327.15,104.69Z" transform="translate(479.6 0.17)"/><path d="M-326.79,93.23c.2-1.33.39-2.65.58-4a7.29,7.29,0,0,1,.81-3c1.27-2,3.07-.58,4,.8.41.58.8,1.21,1.21,1.79.22.34,1.3,1.52,1.17,1.94.13-.11.27-.2.38-.31h-.14a.42.42,0,0,0,0,.83h.14a.41.41,0,0,0,.39-.3c.19-.69-.28-1.11-.64-1.66-.69-1-1.35-2.07-2.07-3.06a3.64,3.64,0,0,0-3.1-1.88,3.13,3.13,0,0,0-2.54,2.39,33.68,33.68,0,0,0-1,6.24C-327.67,93.53-326.87,93.75-326.79,93.23Z" transform="translate(479.6 0.17)"/><path d="M-325.49,90.11c.75,1.46,2,3,3.77,3.06A3,3,0,0,0-318.49,91a.42.42,0,0,0-.29-.51.42.42,0,0,0-.51.29h0a2.31,2.31,0,0,1-2.92,1.44l-.08,0a4.65,4.65,0,0,1-2.44-2.49A.43.43,0,0,0-325.49,90.11Z" transform="translate(479.6 0.17)"/><path d="M-324.46,84.72c.13-1.35,1.68-1.71,2.74-1.35A7.7,7.7,0,0,1-319,85.53c.6.64,1.79,1.52,2,2.41.22,1.18-1.27,2-2.27,2.29a.42.42,0,0,0-.21.56A.42.42,0,0,0-319,91c1.22-.36,3-1.44,3.18-2.87.09-.58-.27-.89-.66-1.3-.78-.83-1.52-1.63-2.32-2.43-1.08-1.11-2.47-2.29-4.13-2a2.56,2.56,0,0,0-2.29,2.29C-325.35,85.25-324.52,85.25-324.46,84.72Z" transform="translate(479.6 0.17)"/><path d="M-323,82.68c.39-.44.58-1,.94-1.46.89-1.11,2.27-.09,3.18.57,1.77,1.25,3.66,3.51,2.05,5.67-.3.44.42.85.72.41,1.72-2.32,0-5-1.94-6.49-.91-.69-2.29-1.93-3.54-1.57s-1.3,1.57-2,2.32A.4.4,0,0,0-323,82.68Z" transform="translate(479.6 0.17)"/><path d="M-320.17,80.17c1-1.19,2.24-2.43,3.73-1.19a6.3,6.3,0,0,1,2,3.12.41.41,0,0,0,.52.27.42.42,0,0,0,.29-.49,6.4,6.4,0,0,0-3.16-4.12c-1.63-.66-3,.64-4,1.83C-321.09,80-320.51,80.58-320.17,80.17Z" transform="translate(479.6 0.17)"/><path d="M-314.06,80.28c1.72-1.47,3.43-2.93,5.15-4.37.41-.36-.2-.94-.58-.58-1.72,1.47-3.43,2.93-5.15,4.37C-315.06,80.06-314.45,80.64-314.06,80.28Z" transform="translate(479.6 0.17)"/><path d="M-307.94,83.81A48.83,48.83,0,0,0-303.27,80c.39-.36-.19-.94-.58-.58a46.91,46.91,0,0,1-4.51,3.7C-308.8,83.4-308.39,84.11-307.94,83.81Z" transform="translate(479.6 0.17)"/><path class="cls-9" d="M-295.52,81.74a16.7,16.7,0,0,0,16.71-16.68,16.7,16.7,0,0,0-16.71-16.68,16.7,16.7,0,0,0-16.71,16.68A16.7,16.7,0,0,0-295.52,81.74Z" transform="translate(479.6 0.17)"/><path d="M-305.6,67.1q9.23-5.88,18.85-11.1c.47-.25,0-1-.42-.71q-9.63,5.18-18.84,11.1A.41.41,0,1,0-305.6,67.1Z" transform="translate(479.6 0.17)"/><path d="M-305,74.34c5.07-3.7,10.19-7.26,15.42-10.74.44-.31,0-1-.42-.72q-7.8,5.22-15.41,10.74C-305.81,73.92-305.4,74.64-305,74.34Z" transform="translate(479.6 0.17)"/></svg>